<svg width="2889" height="1292" viewBox="0 0 2889 1292" fill="none" xmlns="http://www.w3.org/2000/svg">
<path d="M1391.56 207.592C1413.18 163.656 1475.82 163.656 1497.44 207.592L1842.16 908.202C1861.45 947.408 1832.92 993.25 1789.22 993.25H1099.78C1056.08 993.25 1027.55 947.408 1046.84 908.202L1391.56 207.592Z" fill="#D8FFA1"/>
<path d="M1494.74 410.524C1496.05 406.658 1498.68 403.422 1502.08 401.507L1640.19 323.66C1642.55 322.333 1644.56 320.359 1646 317.948L1701.11 226.078C1709.03 212.879 1727.56 217.957 1727.56 233.325L1727.56 283.719C1727.56 286.521 1726.85 289.308 1725.52 291.784L1667.95 398.532C1665.9 402.335 1662.51 405.124 1658.6 406.234L1559.75 434.283C1556.71 435.144 1553.97 437.024 1551.93 439.644L1485.36 525.001C1474.81 538.521 1455.4 527.108 1460.96 510.652L1494.74 410.524Z" fill="#96BC74"/>
<path d="M1393.26 410.524C1391.95 406.658 1389.32 403.422 1385.92 401.507L1247.81 323.66C1245.45 322.333 1243.44 320.359 1242 317.948L1186.89 226.078C1178.97 212.879 1160.44 217.957 1160.44 233.325L1160.44 283.719C1160.44 286.521 1161.15 289.308 1162.48 291.784L1220.05 398.532C1222.1 402.335 1225.49 405.124 1229.4 406.234L1328.25 434.283C1331.29 435.144 1334.03 437.024 1336.07 439.644L1402.64 525.001C1413.19 538.521 1432.6 527.108 1427.04 510.652L1393.26 410.524Z" fill="#96BC74"/>
<path d="M1538.27 630.184C1539.31 626.923 1541.43 624.166 1544.16 622.525L1802.67 467.41C1804.57 466.267 1806.2 464.57 1807.36 462.511L1936.32 233.654C1942.5 222.694 1956.97 226.368 1956.97 238.896L1956.97 397.478C1956.97 399.755 1956.42 402.036 1955.39 404.081L1846.01 619.986C1844.37 623.232 1841.62 625.634 1838.46 626.589L1649.03 683.81C1646.58 684.551 1644.35 686.176 1642.7 688.428L1465.85 929.827C1457.62 941.06 1442.52 932.283 1446.8 918.759L1538.27 630.184Z" fill="#96BC74"/>
<path d="M1350.73 630.174C1349.7 626.913 1347.58 624.156 1344.84 622.515L1086.33 467.4C1084.43 466.257 1082.81 464.561 1081.65 462.502L952.682 233.644C946.506 222.684 932.033 226.358 932.033 238.887L932.033 397.468C932.033 399.745 932.58 402.026 933.616 404.071L1042.99 619.976C1044.63 623.222 1047.38 625.625 1050.54 626.579L1239.97 683.8C1242.42 684.542 1244.65 686.166 1246.3 688.419L1423.15 929.818C1431.38 941.051 1446.49 932.273 1442.2 918.749L1350.73 630.174Z" fill="#96BC74"/>
<path d="M1660.51 648.57C1662.09 645.164 1664.9 642.476 1668.37 641.037L2197.45 421.692C2199.83 420.703 2201.92 419.116 2203.51 417.084L2499.59 39.0111C2508.74 27.326 2527.49 34.6068 2526.35 49.4052L2504.71 332.008C2504.5 334.716 2503.56 337.316 2501.99 339.532L2258.31 683.568C2256.02 686.796 2252.55 688.99 2248.66 689.673L1865.43 756.868C1862.42 757.396 1859.65 758.832 1857.47 760.983L1455.16 1159.23C1443.27 1171 1423.96 1157.42 1431.01 1142.25L1660.51 648.57Z" fill="#96BC74"/>
<path d="M1771.01 797.344C1773.33 794.39 1776.67 792.415 1780.38 791.809L2345.62 699.364C2348.16 698.947 2350.56 697.88 2352.58 696.266L2727.32 395.984C2738.9 386.703 2755.49 398.081 2751 412.228L2665.25 682.376C2664.43 684.965 2662.92 687.281 2660.88 689.079L2344.93 968.219C2341.97 970.837 2338.09 972.18 2334.14 971.953L1945.71 949.665C1942.66 949.49 1939.63 950.252 1937.02 951.848L1454.25 1247.46C1439.98 1256.2 1424.28 1238.55 1434.62 1225.4L1771.01 797.344Z" fill="#96BC74"/>
<path d="M1117.98 796.344C1115.66 793.39 1112.31 791.415 1108.6 790.809L543.369 698.364C540.822 697.947 538.425 696.88 536.411 695.266L161.668 394.984C150.086 385.703 133.501 397.081 137.991 411.228L223.739 681.376C224.561 683.965 226.069 686.281 228.104 688.079L544.054 967.219C547.018 969.837 550.896 971.18 554.845 970.953L943.273 948.665C946.326 948.49 949.359 949.252 951.966 950.848L1434.74 1246.46C1449 1255.2 1464.7 1237.55 1454.37 1224.4L1117.98 796.344Z" fill="#96BC74"/>
<path d="M1228.42 648.57C1226.84 645.164 1224.03 642.476 1220.56 641.037L691.485 421.692C689.1 420.703 687.011 419.116 685.42 417.084L389.341 39.0111C380.19 27.326 361.442 34.6068 362.575 49.4052L384.224 332.008C384.432 334.716 385.37 337.316 386.94 339.532L630.624 683.568C632.91 686.796 636.378 688.99 640.274 689.673L1023.49 756.868C1026.51 757.396 1029.28 758.832 1031.46 760.983L1433.77 1159.23C1445.66 1171 1464.97 1157.42 1457.92 1142.25L1228.42 648.57Z" fill="#96BC74"/>
<path d="M1446.79 1053.27C1445.24 1054.79 1442.76 1054.79 1441.21 1053.27L1075.18 696.113C1072.61 693.608 1074.38 689.25 1077.97 689.25L1810.03 689.25C1813.62 689.25 1815.39 693.608 1812.82 696.113L1446.79 1053.27Z" fill="#D8FFA1"/>
<path d="M1433.61 652C1438.23 644 1449.77 644 1454.39 652L1585.16 878.5C1589.78 886.5 1584.01 896.5 1574.77 896.5H1313.23C1303.99 896.5 1298.22 886.5 1302.84 878.5L1433.61 652Z" fill="#90BF66"/>
<path d="M1440.72 1240.33C1442.32 1242.6 1445.68 1242.6 1447.28 1240.33L1643.1 961.046C1644.96 958.396 1643.06 954.75 1639.83 954.75H1248.17C1244.94 954.75 1243.04 958.396 1244.9 961.046L1440.72 1240.33Z" fill="#96BC74"/>
<path d="M1441.23 1053.33C1442.78 1054.82 1445.22 1054.82 1446.77 1053.33L1640.36 867.133C1642.96 864.636 1641.19 860.25 1637.59 860.25H1250.41C1246.81 860.25 1245.04 864.636 1247.64 867.133L1441.23 1053.33Z" fill="#93AE72"/>
<path d="M1412.32 374.743C1426.49 349.749 1462.51 349.749 1476.68 374.743L1727.1 816.246C1741.09 840.912 1723.27 871.5 1694.91 871.5H1194.09C1165.73 871.5 1147.91 840.912 1161.9 816.246L1412.32 374.743Z" fill="#C3D585"/>
<path d="M1750.5 860.482C1749.42 862.507 1747.74 864.145 1745.68 865.166L1593.11 941.063C1581.87 946.653 1571.54 932.085 1580.54 923.331L1813.12 696.975C1822.11 688.221 1836.4 698.94 1830.5 710.022L1750.5 860.482Z" fill="#96BC74"/>
<path d="M1138.84 860.482C1139.91 862.507 1141.6 864.145 1143.65 865.166L1296.22 941.063C1307.46 946.653 1317.79 932.085 1308.79 923.331L1076.21 696.975C1067.22 688.221 1052.93 698.94 1058.83 710.022L1138.84 860.482Z" fill="#96BC74"/>
<path d="M1442.67 1137.59C1443.75 1138.42 1445.25 1138.42 1446.33 1137.59L1786.96 875.126C1789.23 873.379 1788 869.75 1785.13 869.75H1103.87C1101 869.75 1099.77 873.379 1102.04 875.126L1442.67 1137.59Z" fill="#D8FFA1"/>
<path d="M1438.5 1129.05C1441.23 1133.57 1447.77 1133.57 1450.5 1129.05L1571.9 927.613C1574.72 922.948 1571.36 917 1565.91 917H1323.09C1317.64 917 1314.28 922.948 1317.1 927.613L1438.5 1129.05Z" fill="#C3D585"/>
<path d="M1432.63 1129.44C1436.32 1140.31 1451.68 1140.31 1455.37 1129.44L1572 785.1C1574.63 777.319 1568.85 769.25 1560.63 769.25H1327.37C1319.15 769.25 1313.37 777.319 1316 785.1L1432.63 1129.44Z" fill="#CAEA96"/>
<path d="M1433.93 487.699C1438.45 479.266 1450.55 479.266 1455.07 487.699L1618.18 791.575C1622.47 799.569 1616.68 809.25 1607.6 809.25H1281.4C1272.32 809.25 1266.53 799.569 1270.82 791.575L1433.93 487.699Z" fill="#CAEA96"/>
</svg>
