<svg width="2746" height="1179" viewBox="0 0 2746 1179" fill="none" xmlns="http://www.w3.org/2000/svg">
<path d="M1322.05 1070.71C1344.82 1109.72 1401.18 1109.72 1423.95 1070.71L1755.94 501.994C1778.9 462.661 1750.53 413.25 1704.99 413.25H1041.01C995.469 413.25 967.099 462.661 990.059 501.994L1322.05 1070.71Z" fill="#80470F"/>
<path d="M1373.5 1117L1134.04 589L1612.96 589L1373.5 1117Z" fill="#80470F"/>
<path d="M1380.69 386.548C1377.09 381.766 1369.91 381.766 1366.31 386.548L1144.9 680.586C1140.43 686.517 1144.66 695 1152.09 695L1594.91 695C1602.34 695 1606.57 686.517 1602.1 680.586L1380.69 386.548Z" fill="#80470F"/>
<path d="M1392.43 332.458C1383.29 319.201 1363.71 319.201 1354.57 332.458L1158.91 616.193C1148.39 631.451 1159.31 652.25 1177.84 652.25H1569.16C1587.69 652.25 1598.61 631.451 1588.09 616.193L1392.43 332.458Z" fill="#80470F"/>
<path d="M1135.8 618.398C1134.1 615.048 1131.21 612.457 1127.69 611.138L591.406 410.047C588.989 409.141 586.847 407.626 585.187 405.65L276.33 37.9416C266.784 26.5768 248.296 34.4956 249.936 49.2465L281.254 330.942C281.554 333.641 282.581 336.208 284.226 338.369L539.553 673.855C541.948 677.002 545.489 679.076 549.406 679.625L934.704 733.653C937.732 734.077 940.557 735.417 942.803 737.492L1358.52 1121.73C1370.8 1133.08 1389.65 1118.84 1382.08 1103.92L1135.8 618.398Z" fill="#693908"/>
<path d="M1609.53 618.398C1611.23 615.048 1614.13 612.457 1617.64 611.138L2153.93 410.047C2156.34 409.141 2158.48 407.626 2160.14 405.65L2469 37.9416C2478.55 26.5768 2497.04 34.4956 2495.4 49.2465L2464.08 330.942C2463.78 333.641 2462.75 336.208 2461.11 338.369L2205.78 673.855C2203.38 677.002 2199.84 679.076 2195.93 679.625L1810.63 733.653C1807.6 734.077 1804.77 735.417 1802.53 737.492L1386.81 1121.73C1374.53 1133.08 1355.69 1118.84 1363.25 1103.92L1609.53 618.398Z" fill="#693908"/>
<path d="M1417.44 505.014C1418.75 501.185 1421.38 497.986 1424.77 496.094L1545.37 428.868C1547.72 427.557 1549.72 425.609 1551.16 423.226L1596.18 349.015C1604.13 335.906 1622.73 341.066 1622.73 356.381L1622.73 393.302C1622.73 396.097 1622.02 398.871 1620.68 401.332L1570.61 493.153C1568.56 496.912 1565.19 499.665 1561.28 500.761L1475.48 524.838C1472.46 525.688 1469.72 527.542 1467.68 530.129L1415.9 595.797C1405.31 609.226 1385.81 597.739 1391.39 581.364L1417.44 505.014Z" fill="#693908"/>
<path d="M1328.55 505.014C1327.25 501.185 1324.62 497.986 1321.23 496.094L1200.63 428.868C1198.28 427.557 1196.28 425.609 1194.83 423.226L1149.82 349.015C1141.87 335.906 1123.27 341.066 1123.27 356.381L1123.27 393.302C1123.27 396.097 1123.98 398.871 1125.32 401.332L1175.39 493.153C1177.44 496.912 1180.81 499.665 1184.72 500.761L1270.51 524.838C1273.54 525.688 1276.28 527.542 1278.32 530.129L1330.1 595.797C1340.69 609.226 1360.19 597.739 1354.6 581.364L1328.55 505.014Z" fill="#693908"/>
<path d="M1389.04 439.583C1382.09 427.695 1364.91 427.695 1357.96 439.583L1284.11 565.916C1277.1 577.916 1285.75 593 1299.65 593H1447.35C1461.25 593 1469.9 577.916 1462.89 565.916L1389.04 439.583Z" fill="#773D0A"/>
<path d="M1388.55 844.341C1381.6 856.25 1364.4 856.25 1357.45 844.341L1217.31 604.069C1210.32 592.069 1218.97 577 1232.86 577H1513.14C1527.03 577 1535.68 592.069 1528.69 604.069L1388.55 844.341Z" fill="#773D0A"/>
</svg>
