<svg width="2701" height="1218" viewBox="0 0 2701 1218" fill="none" xmlns="http://www.w3.org/2000/svg">
<path d="M1299.33 286.154C1322 246.647 1379 246.647 1401.67 286.154L1739.29 874.38C1761.86 913.714 1733.47 962.75 1688.12 962.75H1012.88C967.532 962.75 939.137 913.713 961.713 874.38L1299.33 286.154Z" fill="#EEBAFF"/>
<path d="M1400.74 290.524C1402.05 286.658 1404.68 283.422 1408.08 281.507L1546.19 203.66C1548.55 202.333 1550.56 200.359 1552 197.948L1607.11 106.078C1615.03 92.8795 1633.56 97.957 1633.56 113.325L1633.56 163.719C1633.56 166.521 1632.85 169.308 1631.52 171.784L1573.95 278.532C1571.9 282.335 1568.51 285.124 1564.6 286.234L1465.75 314.283C1462.71 315.144 1459.97 317.024 1457.93 319.644L1391.36 405.001C1380.81 418.521 1361.4 407.108 1366.96 390.652L1400.74 290.524Z" fill="#DFAAEA"/>
<path d="M1299.26 290.524C1297.95 286.658 1295.32 283.422 1291.92 281.507L1153.81 203.66C1151.45 202.333 1149.44 200.359 1148 197.948L1092.89 106.078C1084.97 92.8795 1066.44 97.957 1066.44 113.325L1066.44 163.719C1066.44 166.521 1067.15 169.308 1068.48 171.784L1126.05 278.532C1128.1 282.335 1131.49 285.124 1135.4 286.234L1234.25 314.283C1237.29 315.144 1240.03 317.024 1242.07 319.644L1308.64 405.001C1319.19 418.521 1338.6 407.108 1333.04 390.652L1299.26 290.524Z" fill="#DFAAEA"/>
<path d="M1428.75 372.008C1429.81 369.824 1431.77 368.09 1434.31 367.09L1651.67 281.532C1653.38 280.857 1654.84 279.843 1655.94 278.569L1757.93 159.831C1765.05 151.552 1781.84 157.318 1781.84 168.039L1781.84 241.759C1781.84 243.709 1781.21 245.562 1780 247.122L1688.58 365.512C1687.02 367.53 1684.6 368.946 1681.73 369.514L1522.53 401.062C1520.33 401.498 1518.37 402.435 1516.88 403.777L1384.53 522.286C1375.09 530.743 1357.11 520.276 1362.38 509.384L1428.75 372.008Z" fill="#DFAAEA"/>
<path d="M1271.25 372.008C1270.2 369.824 1268.24 368.09 1265.7 367.09L1048.34 281.532C1046.63 280.857 1045.17 279.843 1044.07 278.569L942.075 159.831C934.964 151.552 918.168 157.318 918.168 168.039L918.168 241.759C918.168 243.709 918.805 245.562 920.009 247.122L1011.43 365.512C1012.99 367.53 1015.41 368.946 1018.28 369.514L1177.48 401.062C1179.68 401.498 1181.64 402.435 1183.13 403.777L1315.48 522.286C1324.92 530.743 1342.9 520.276 1337.63 509.384L1271.25 372.008Z" fill="#DFAAEA"/>
<path d="M1444.27 630.184C1445.3 626.923 1447.42 624.166 1450.16 622.525L1708.67 467.41C1710.57 466.267 1712.19 464.57 1713.35 462.511L1842.32 233.654C1848.49 222.694 1862.97 226.368 1862.97 238.896L1862.97 397.478C1862.97 399.755 1862.42 402.036 1861.38 404.081L1752.01 619.986C1750.37 623.232 1747.62 625.634 1744.46 626.589L1555.03 683.81C1552.58 684.551 1550.35 686.176 1548.7 688.428L1371.85 929.827C1363.62 941.06 1348.51 932.283 1352.8 918.759L1444.27 630.184Z" fill="#DFAAEA"/>
<path d="M1256.73 630.173C1255.7 626.913 1253.58 624.155 1250.84 622.515L992.335 467.4C990.43 466.256 988.806 464.56 987.646 462.501L858.682 233.644C852.506 222.684 838.033 226.358 838.033 238.886L838.033 397.468C838.033 399.744 838.58 402.026 839.616 404.071L948.989 619.976C950.633 623.222 953.38 625.624 956.539 626.578L1145.97 683.799C1148.42 684.541 1150.65 686.166 1152.3 688.418L1329.15 929.817C1337.38 941.05 1352.49 932.272 1348.2 918.749L1256.73 630.173Z" fill="#DFAAEA"/>
<path d="M1566.51 648.57C1568.09 645.164 1570.9 642.476 1574.37 641.037L2103.45 421.692C2105.83 420.703 2107.92 419.116 2109.51 417.084L2405.59 39.0111C2414.74 27.326 2433.49 34.6068 2432.35 49.4052L2410.71 332.008C2410.5 334.716 2409.56 337.316 2407.99 339.532L2164.31 683.568C2162.02 686.796 2158.55 688.99 2154.66 689.673L1771.43 756.868C1768.42 757.396 1765.65 758.832 1763.47 760.983L1361.16 1159.23C1349.27 1171 1329.96 1157.42 1337.01 1142.25L1566.51 648.57Z" fill="#DFAAEA"/>
<path d="M1134.42 648.57C1132.84 645.164 1130.03 642.476 1126.56 641.037L597.485 421.692C595.1 420.703 593.011 419.116 591.42 417.084L295.341 39.0111C286.19 27.326 267.442 34.6068 268.575 49.4052L290.224 332.008C290.432 334.716 291.37 337.316 292.94 339.532L536.624 683.568C538.91 686.796 542.378 688.99 546.274 689.673L929.495 756.868C932.506 757.396 935.284 758.832 937.457 760.983L1339.77 1159.23C1351.66 1171 1370.97 1157.42 1363.92 1142.25L1134.42 648.57Z" fill="#DFAAEA"/>
<path d="M1363.67 1116.04C1356.49 1124.43 1343.51 1124.43 1336.33 1116.04L1258.53 1025.21C1248.53 1013.53 1256.83 995.5 1272.2 995.5H1427.8C1443.17 995.5 1451.47 1013.53 1441.47 1025.21L1363.67 1116.04Z" fill="#DFAAEA"/>
<path d="M1362.57 1043.73C1355.58 1050.56 1344.42 1050.56 1337.43 1043.73L1005.79 720.133C994.241 708.859 1002.22 689.25 1018.37 689.25L1681.63 689.25C1697.78 689.25 1705.76 708.859 1694.21 720.133L1362.57 1043.73Z" fill="#9F61B3"/>
<path d="M1318.55 368.762C1333.02 345.412 1366.98 345.412 1381.45 368.762L1657.95 815.012C1673.22 839.661 1655.49 871.5 1626.49 871.5H1073.51C1044.51 871.5 1026.78 839.661 1042.05 815.012L1318.55 368.762Z" fill="#C77CE0"/>
<path d="M1656.5 860.482C1655.42 862.507 1653.74 864.145 1651.68 865.166L1499.11 941.063C1487.87 946.653 1477.54 932.085 1486.54 923.331L1719.12 696.975C1728.11 688.221 1742.4 698.94 1736.5 710.022L1656.5 860.482Z" fill="#DFAAEA"/>
<path d="M1044.84 860.482C1045.91 862.507 1047.6 864.145 1049.65 865.166L1202.22 941.063C1213.46 946.653 1223.79 932.085 1214.79 923.331L982.212 696.975C973.217 688.221 958.935 698.94 964.828 710.022L1044.84 860.482Z" fill="#DFAAEA"/>
<path d="M1339.61 652C1344.23 644 1355.77 644 1360.39 652L1491.16 878.5C1495.78 886.5 1490.01 896.5 1480.77 896.5H1219.23C1209.99 896.5 1204.22 886.5 1208.84 878.5L1339.61 652Z" fill="#9F61B3"/>
<path d="M1347.21 1053.29C1348.76 1054.8 1351.24 1054.8 1352.79 1053.29L1546.46 864.867C1549.03 862.363 1547.26 858 1543.67 858H1156.33C1152.74 858 1150.97 862.363 1153.54 864.867L1347.21 1053.29Z" fill="#C77CE0"/>
<path d="M1339.61 530C1344.23 522 1355.77 522 1360.39 530L1491.16 756.5C1495.78 764.5 1490.01 774.5 1480.77 774.5H1219.23C1209.99 774.5 1204.22 764.5 1208.84 756.5L1339.61 530Z" fill="#EEBAFF"/>
<path d="M1345.36 720.562C1347.69 716.682 1353.31 716.682 1355.64 720.562L1467.58 906.91C1469.98 910.909 1467.1 916 1462.44 916H1238.56C1233.9 916 1231.02 910.909 1233.42 906.91L1345.36 720.562Z" fill="#EEBAFF"/>
<path d="M1345.53 851.024C1347.92 853.681 1352.08 853.681 1354.47 851.024L1458.8 734.757C1462.27 730.894 1459.52 724.75 1454.33 724.75H1245.67C1240.48 724.75 1237.73 730.894 1241.2 734.757L1345.53 851.024Z" fill="#EEBAFF"/>
</svg>
