<svg width="2889" height="1330" viewBox="0 0 2889 1330" fill="none" xmlns="http://www.w3.org/2000/svg">
<path d="M1750.5 864.482C1749.42 866.507 1747.74 868.145 1745.68 869.166L1593.11 945.063C1581.87 950.653 1571.54 936.085 1580.54 927.331L1813.12 700.975C1822.11 692.221 1836.4 702.94 1830.5 714.022L1750.5 864.482Z" fill="#B66DA3"/>
<path d="M1138.84 864.482C1139.91 866.507 1141.6 868.145 1143.65 869.166L1296.22 945.063C1307.46 950.653 1317.79 936.085 1308.79 927.331L1076.21 700.975C1067.22 692.221 1052.93 702.94 1058.83 714.022L1138.84 864.482Z" fill="#B66DA3"/>
<path d="M1522.76 316.008C1523.81 313.824 1525.77 312.09 1528.31 311.09L1745.67 225.532C1747.39 224.857 1748.85 223.843 1749.94 222.569L1851.94 103.831C1859.05 95.5518 1875.85 101.318 1875.85 112.039L1875.85 185.759C1875.85 187.709 1875.21 189.562 1874 191.122L1782.58 309.512C1781.02 311.53 1778.6 312.946 1775.73 313.514L1616.53 345.062C1614.33 345.498 1612.38 346.435 1610.88 347.777L1478.53 466.286C1469.09 474.743 1451.12 464.276 1456.38 453.384L1522.76 316.008Z" fill="#7E2B79"/>
<path d="M1365.25 316.008C1364.2 313.824 1362.24 312.09 1359.7 311.09L1142.34 225.532C1140.63 224.857 1139.17 223.843 1138.07 222.569L1036.08 103.831C1028.96 95.5518 1012.17 101.318 1012.17 112.039L1012.17 185.759C1012.17 187.709 1012.8 189.562 1014.01 191.122L1105.43 309.512C1106.99 311.53 1109.41 312.946 1112.28 313.514L1271.48 345.062C1273.68 345.498 1275.64 346.435 1277.13 347.777L1409.48 466.286C1418.92 474.743 1436.9 464.276 1431.63 453.384L1365.25 316.008Z" fill="#7E2B79"/>
<path d="M1556.45 502.417C1557.51 499.632 1559.58 497.345 1562.25 496.003L1873.1 340.066C1874.93 339.145 1876.5 337.77 1877.64 336.073L2034.9 102.757C2041.51 92.9493 2056.97 97.6705 2056.97 109.497L2056.97 270.649C2056.97 272.813 2056.38 274.934 2055.26 276.784L1923.7 493.906C1922.08 496.587 1919.45 498.521 1916.39 499.294L1687.74 557.038C1685.38 557.634 1683.26 558.93 1681.66 560.754L1466.02 806.842C1457.22 816.881 1440.91 807.178 1445.63 794.715L1556.45 502.417Z" fill="#7E2B79"/>
<path d="M1331.55 502.406C1330.49 499.622 1328.42 497.334 1325.75 495.992L1014.9 340.056C1013.07 339.134 1011.5 337.759 1010.36 336.063L853.099 102.747C846.488 92.9386 831.027 97.6598 831.027 109.487L831.027 270.638C831.027 272.802 831.619 274.923 832.74 276.774L964.3 493.895C965.924 496.576 968.548 498.511 971.606 499.283L1200.26 557.027C1202.62 557.624 1204.74 558.92 1206.34 560.743L1421.98 806.831C1430.78 816.87 1447.09 807.167 1442.37 794.705L1331.55 502.406Z" fill="#7E2B79"/>
<path d="M1771.01 835.344C1773.33 832.39 1776.67 830.415 1780.38 829.809L2345.62 737.364C2348.16 736.947 2350.56 735.88 2352.58 734.266L2727.32 433.984C2738.9 424.703 2755.49 436.081 2751 450.228L2665.25 720.376C2664.43 722.965 2662.92 725.281 2660.88 727.079L2344.93 1006.22C2341.97 1008.84 2338.09 1010.18 2334.14 1009.95L1945.71 987.665C1942.66 987.49 1939.63 988.252 1937.02 989.848L1454.25 1285.46C1439.98 1294.2 1424.28 1276.55 1434.62 1263.4L1771.01 835.344Z" fill="#7E2B79"/>
<path d="M1117.98 834.344C1115.66 831.39 1112.31 829.415 1108.6 828.809L543.369 736.364C540.822 735.947 538.425 734.88 536.411 733.266L161.668 432.984C150.086 423.703 133.501 435.081 137.991 449.228L223.739 719.376C224.561 721.965 226.069 724.281 228.104 726.079L544.054 1005.22C547.018 1007.84 550.896 1009.18 554.845 1008.95L943.273 986.665C946.326 986.49 949.359 987.252 951.966 988.848L1434.74 1284.46C1449 1293.2 1464.7 1275.55 1454.37 1262.4L1117.98 834.344Z" fill="#7E2B79"/>
<path d="M1694.57 867.68C1696.73 865.452 1699.64 864.019 1702.85 863.595L2136.8 806.292C2138.95 806.008 2140.98 805.27 2142.74 804.129L2419.24 625.245C2431.4 617.378 2447.87 630.49 2442.61 643.855L2383.4 794.485C2382.45 796.893 2380.83 798.961 2378.71 800.472L2137.01 972.882C2134.41 974.741 2131.17 975.665 2127.82 975.509L1829.81 961.704C1827.24 961.585 1824.73 962.097 1822.52 963.192L1478.25 1133.39C1463.33 1140.77 1447.7 1121.31 1459.12 1109.58L1694.57 867.68Z" fill="#B66DA3"/>
<path d="M1193.43 867.059C1191.26 864.831 1188.36 863.398 1185.14 862.974L751.195 805.671C749.045 805.387 747.018 804.649 745.254 803.508L468.755 624.624C456.596 616.757 440.132 629.869 445.386 643.234L504.603 793.864C505.55 796.272 507.167 798.34 509.286 799.851L750.986 972.261C753.592 974.12 756.825 975.044 760.181 974.888L1058.19 961.082C1060.76 960.963 1063.27 961.476 1065.48 962.571L1409.74 1132.77C1424.67 1140.15 1440.3 1120.69 1428.87 1108.95L1193.43 867.059Z" fill="#B66DA3"/>
<path d="M1424.76 1263.43C1434.3 1277.24 1454.7 1277.24 1464.24 1263.43L1857.99 693.644C1868.99 677.725 1857.6 656 1838.25 656H1050.75C1031.4 656 1020.01 677.725 1031.01 693.644L1424.76 1263.43Z" fill="#51044C"/>
<path d="M1438.27 1284.28C1441.47 1288.25 1447.53 1288.25 1450.73 1284.28L1577.33 1127.27C1581.55 1122.04 1577.82 1114.25 1571.1 1114.25H1317.9C1311.18 1114.25 1307.45 1122.04 1311.67 1127.27L1438.27 1284.28Z" fill="#7E2B79"/>
<path d="M1660.51 648.57C1662.09 645.164 1664.9 642.476 1668.37 641.037L2197.45 421.692C2199.83 420.703 2201.92 419.116 2203.51 417.084L2499.59 39.0111C2508.74 27.326 2527.49 34.6068 2526.35 49.4052L2504.71 332.008C2504.5 334.716 2503.56 337.316 2501.99 339.532L2258.31 683.568C2256.02 686.796 2252.55 688.99 2248.66 689.673L1865.43 756.868C1862.42 757.396 1859.65 758.832 1857.47 760.983L1455.16 1159.23C1443.27 1171 1423.96 1157.42 1431.01 1142.25L1660.51 648.57Z" fill="#7E2B79"/>
<path d="M1228.42 648.57C1226.84 645.164 1224.03 642.476 1220.56 641.037L691.485 421.692C689.1 420.703 687.011 419.116 685.42 417.084L389.341 39.0111C380.19 27.326 361.442 34.6068 362.575 49.4052L384.224 332.008C384.432 334.716 385.37 337.316 386.94 339.532L630.624 683.568C632.91 686.796 636.378 688.99 640.274 689.673L1023.49 756.868C1026.51 757.396 1029.28 758.832 1031.46 760.983L1433.77 1159.23C1445.66 1171 1464.97 1157.42 1457.92 1142.25L1228.42 648.57Z" fill="#7E2B79"/>
<path d="M1623.99 664.406C1625.47 662.427 1627.81 660.969 1630.71 660.218L2073.41 545.815C2075.33 545.318 2077.02 544.509 2078.37 543.434L2316.13 354.186C2326.42 345.993 2347.88 355.799 2346.37 368.01L2330.4 497.971C2330.14 500.118 2329.1 502.044 2327.38 503.553L2124.19 682.368C2122.24 684.086 2119.5 685.189 2116.33 685.536L1795.39 720.614C1792.98 720.878 1790.8 721.582 1789.04 722.673L1479.56 913.637C1466.27 921.835 1443.54 906.364 1452.07 894.928L1623.99 664.406Z" fill="#B66DA3"/>
<path d="M1263.01 664.407C1261.54 662.428 1259.2 660.97 1256.29 660.219L813.592 545.816C811.67 545.319 809.986 544.51 808.636 543.435L570.876 354.187C560.582 345.994 539.127 355.8 540.628 368.011L556.599 497.972C556.863 500.119 557.905 502.045 559.62 503.554L762.81 682.369C764.762 684.087 767.5 685.19 770.67 685.537L1091.61 720.615C1094.02 720.879 1096.2 721.583 1097.96 722.674L1407.44 913.638C1420.73 921.836 1443.46 906.365 1434.93 894.929L1263.01 664.407Z" fill="#B66DA3"/>
<path d="M1663.12 1071.29C1662.13 1073.49 1660.58 1075.27 1658.7 1076.39L1469.46 1188.01C1459.2 1194.06 1449.83 1178.34 1458.05 1168.86L1746.52 835.958C1754.74 826.479 1767.73 838.011 1762.35 850.006L1663.12 1071.29Z" fill="#7E2B79"/>
<path d="M1241.99 1072.29C1242.98 1074.49 1244.53 1076.27 1246.41 1077.39L1435.65 1189.01C1445.91 1195.06 1455.28 1179.34 1447.07 1169.86L1158.59 836.958C1150.38 827.479 1137.38 839.011 1142.76 851.006L1241.99 1072.29Z" fill="#7E2B79"/>
<path d="M1421.53 1222.83C1432.08 1239.9 1456.92 1239.9 1467.47 1222.83L1755.5 756.693C1766.61 738.705 1753.67 715.5 1732.53 715.5H1156.47C1135.33 715.5 1122.39 738.705 1133.5 756.693L1421.53 1222.83Z" fill="#B66DA3"/>
<path d="M1420.97 205.802C1431.3 187.46 1457.7 187.46 1468.03 205.802L1758.3 721.506C1768.43 739.505 1755.42 761.75 1734.77 761.75H1154.23C1133.58 761.75 1120.57 739.505 1130.7 721.506L1420.97 205.802Z" fill="#B66DA3"/>
<path d="M1430.26 317.001C1436.47 306.606 1451.53 306.606 1457.74 317.001L1697.1 717.796C1700.12 722.849 1700.12 729.151 1697.1 734.204L1457.74 1135C1451.53 1145.39 1436.47 1145.39 1430.26 1135L1190.9 734.204C1187.88 729.151 1187.88 722.849 1190.9 717.796L1430.26 317.001Z" fill="#B751B9"/>
<path d="M1434.26 493.734C1438.94 486.083 1450.06 486.083 1454.74 493.734L1626.02 773.738C1630.91 781.734 1625.16 792 1615.78 792H1273.22C1263.84 792 1258.09 781.734 1262.98 773.738L1434.26 493.734Z" fill="#792E6B"/>
<path d="M1438.88 606.391C1441.22 602.559 1446.78 602.559 1449.12 606.391L1534.56 746.374C1537 750.372 1534.12 755.5 1529.44 755.5H1358.56C1353.88 755.5 1351 750.372 1353.44 746.374L1438.88 606.391Z" fill="#DF91D1"/>
<path d="M1432.93 1097.2C1436.18 1108.93 1452.82 1108.93 1456.07 1097.2L1555.04 739.45C1557.16 731.806 1551.41 724.25 1543.48 724.25H1345.52C1337.59 724.25 1331.84 731.806 1333.96 739.45L1432.93 1097.2Z" fill="#792E6B"/>
</svg>
