<svg width="2701" height="1218" viewBox="0 0 2701 1218" fill="none" xmlns="http://www.w3.org/2000/svg">
<path d="M1308.28 273.719C1331.32 250.678 1368.68 250.678 1391.72 273.719L1758.28 640.281C1781.32 663.322 1781.32 700.678 1758.28 723.719L1391.72 1090.28C1368.68 1113.32 1331.32 1113.32 1308.28 1090.28L941.719 723.719C918.678 700.678 918.678 663.322 941.719 640.281L1308.28 273.719Z" fill="#B48122"/>
<path d="M1428.75 510.008C1429.8 507.824 1431.76 506.09 1434.3 505.09L1651.66 419.532C1653.37 418.857 1654.84 417.843 1655.93 416.569L1757.93 297.831C1765.04 289.552 1781.83 295.318 1781.83 306.039L1781.83 379.759C1781.83 381.709 1781.2 383.562 1779.99 385.122L1688.57 503.512C1687.01 505.53 1684.59 506.946 1681.72 507.514L1522.52 539.062C1520.32 539.498 1518.37 540.435 1516.87 541.777L1384.52 660.286C1375.08 668.743 1357.11 658.276 1362.37 647.384L1428.75 510.008Z" fill="#A66C00"/>
<path d="M1271.25 510.008C1270.2 507.824 1268.24 506.09 1265.7 505.09L1048.34 419.532C1046.63 418.857 1045.16 417.843 1044.07 416.569L942.073 297.831C934.962 289.552 918.166 295.318 918.166 306.039L918.167 379.759C918.166 381.709 918.803 383.562 920.007 385.122L1011.43 503.512C1012.99 505.53 1015.41 506.946 1018.28 507.514L1177.48 539.062C1179.68 539.498 1181.63 540.435 1183.13 541.777L1315.48 660.286C1324.92 668.743 1342.89 658.276 1337.63 647.384L1271.25 510.008Z" fill="#A66C00"/>
<path d="M1566.51 648.57C1568.09 645.164 1570.9 642.476 1574.37 641.037L2103.45 421.692C2105.83 420.703 2107.92 419.116 2109.51 417.084L2405.59 39.0111C2414.74 27.326 2433.49 34.6068 2432.35 49.4052L2410.71 332.008C2410.5 334.716 2409.56 337.316 2407.99 339.532L2164.31 683.568C2162.02 686.796 2158.55 688.99 2154.66 689.673L1771.43 756.868C1768.42 757.396 1765.65 758.832 1763.47 760.983L1361.16 1159.23C1349.27 1171 1329.96 1157.42 1337.01 1142.25L1566.51 648.57Z" fill="#A66C00"/>
<path d="M1134.42 648.57C1132.84 645.164 1130.03 642.476 1126.56 641.037L597.485 421.692C595.1 420.703 593.011 419.116 591.42 417.084L295.341 39.0111C286.19 27.326 267.442 34.6068 268.575 49.4052L290.224 332.008C290.432 334.716 291.37 337.316 292.94 339.532L536.624 683.568C538.91 686.796 542.378 688.99 546.274 689.673L929.495 756.868C932.506 757.396 935.284 758.832 937.457 760.983L1339.77 1159.23C1351.66 1171 1370.97 1157.42 1363.92 1142.25L1134.42 648.57Z" fill="#A66C00"/>
<path d="M1363.67 1116.04C1356.49 1124.43 1343.51 1124.43 1336.33 1116.04L1258.53 1025.21C1248.53 1013.53 1256.83 995.5 1272.2 995.5H1427.8C1443.17 995.5 1451.47 1013.53 1441.47 1025.21L1363.67 1116.04Z" fill="#A66C00"/>
<path d="M1362.57 1043.73C1355.58 1050.56 1344.42 1050.56 1337.43 1043.73L1005.79 720.133C994.241 708.859 1002.22 689.25 1018.37 689.25L1681.63 689.25C1697.78 689.25 1705.76 708.859 1694.21 720.133L1362.57 1043.73Z" fill="#8F5D00"/>
<path d="M1323.84 431.163C1338.29 416.714 1361.71 416.714 1376.16 431.163L1623.84 678.837C1638.29 693.286 1638.29 716.714 1623.84 731.163L1376.16 978.837C1361.71 993.286 1338.29 993.286 1323.84 978.837L1076.16 731.163C1061.71 716.714 1061.71 693.286 1076.16 678.837L1323.84 431.163Z" fill="#B87D10"/>
<path d="M1338.69 566.314C1344.93 560.065 1355.07 560.065 1361.31 566.314L1488.69 693.686C1494.93 699.935 1494.93 710.065 1488.69 716.314L1361.31 843.686C1355.07 849.935 1344.93 849.935 1338.69 843.686L1211.31 716.314C1205.07 710.065 1205.07 699.935 1211.31 693.686L1338.69 566.314Z" fill="#976508"/>
</svg>
