<svg width="2701" height="1218" viewBox="0 0 2701 1218" fill="none" xmlns="http://www.w3.org/2000/svg">
<path d="M1299.33 286.154C1322 246.647 1379 246.647 1401.67 286.154L1739.29 874.38C1761.86 913.714 1733.47 962.75 1688.12 962.75H1012.88C967.532 962.75 939.137 913.713 961.713 874.38L1299.33 286.154Z" fill="#044951"/>
<path d="M1400.74 476.524C1402.05 472.658 1404.68 469.422 1408.08 467.507L1546.19 389.66C1548.55 388.333 1550.56 386.359 1552 383.948L1607.11 292.078C1615.03 278.879 1633.56 283.957 1633.56 299.325L1633.56 349.719C1633.56 352.521 1632.85 355.308 1631.52 357.784L1573.95 464.532C1571.9 468.335 1568.51 471.124 1564.6 472.234L1465.75 500.283C1462.71 501.144 1459.97 503.024 1457.93 505.644L1391.36 591.001C1380.81 604.521 1361.4 593.108 1366.96 576.652L1400.74 476.524Z" fill="#006976"/>
<path d="M1299.26 476.524C1297.95 472.658 1295.32 469.422 1291.92 467.507L1153.81 389.66C1151.45 388.333 1149.44 386.359 1148 383.948L1092.89 292.078C1084.97 278.879 1066.44 283.957 1066.44 299.325L1066.44 349.719C1066.44 352.521 1067.15 355.308 1068.48 357.784L1126.05 464.532C1128.1 468.335 1131.49 471.124 1135.4 472.234L1234.25 500.283C1237.29 501.144 1240.03 503.024 1242.07 505.644L1308.64 591.001C1319.19 604.521 1338.6 593.108 1333.04 576.652L1299.26 476.524Z" fill="#006976"/>
<path d="M1428.75 558.008C1429.8 555.824 1431.76 554.09 1434.3 553.09L1651.66 467.532C1653.38 466.857 1654.84 465.843 1655.93 464.569L1757.93 345.831C1765.04 337.552 1781.84 343.318 1781.84 354.039L1781.84 427.759C1781.84 429.709 1781.2 431.562 1779.99 433.122L1688.57 551.512C1687.01 553.53 1684.59 554.946 1681.72 555.514L1522.52 587.062C1520.32 587.498 1518.37 588.435 1516.87 589.777L1384.52 708.286C1375.08 716.743 1357.11 706.276 1362.37 695.384L1428.75 558.008Z" fill="#006976"/>
<path d="M1271.25 558.008C1270.2 555.824 1268.24 554.09 1265.7 553.09L1048.34 467.532C1046.63 466.857 1045.17 465.843 1044.07 464.569L942.075 345.831C934.964 337.552 918.168 343.318 918.168 354.039L918.168 427.759C918.168 429.709 918.805 431.562 920.009 433.122L1011.43 551.512C1012.99 553.53 1015.41 554.946 1018.28 555.514L1177.48 587.062C1179.68 587.498 1181.64 588.435 1183.13 589.777L1315.48 708.286C1324.92 716.743 1342.9 706.276 1337.63 695.384L1271.25 558.008Z" fill="#006976"/>
<path d="M1566.51 648.57C1568.09 645.164 1570.9 642.476 1574.37 641.037L2103.45 421.692C2105.83 420.703 2107.92 419.116 2109.51 417.084L2405.59 39.0111C2414.74 27.326 2433.49 34.6068 2432.35 49.4052L2410.71 332.008C2410.5 334.716 2409.56 337.316 2407.99 339.532L2164.31 683.568C2162.02 686.796 2158.55 688.99 2154.66 689.673L1771.43 756.868C1768.42 757.396 1765.65 758.832 1763.47 760.983L1361.16 1159.23C1349.27 1171 1329.96 1157.42 1337.01 1142.25L1566.51 648.57Z" fill="#006976"/>
<path d="M1134.42 648.57C1132.84 645.164 1130.03 642.476 1126.56 641.037L597.485 421.692C595.1 420.703 593.011 419.116 591.42 417.084L295.341 39.0111C286.19 27.326 267.442 34.6068 268.575 49.4052L290.224 332.008C290.432 334.716 291.37 337.316 292.94 339.532L536.624 683.568C538.91 686.796 542.378 688.99 546.274 689.673L929.495 756.868C932.506 757.396 935.284 758.832 937.457 760.983L1339.77 1159.23C1351.66 1171 1370.97 1157.42 1363.92 1142.25L1134.42 648.57Z" fill="#006976"/>
<path d="M1363.67 1116.04C1356.49 1124.43 1343.51 1124.43 1336.33 1116.04L1258.53 1025.21C1248.53 1013.53 1256.83 995.5 1272.2 995.5H1427.8C1443.17 995.5 1451.47 1013.53 1441.47 1025.21L1363.67 1116.04Z" fill="#006976"/>
<path d="M1362.57 1043.73C1355.58 1050.56 1344.42 1050.56 1337.43 1043.73L1005.79 720.133C994.241 708.859 1002.22 689.25 1018.37 689.25L1681.63 689.25C1697.78 689.25 1705.76 708.859 1694.21 720.133L1362.57 1043.73Z" fill="#045B6B"/>
<path d="M1318.55 368.762C1333.02 345.412 1366.98 345.412 1381.45 368.762L1657.95 815.012C1673.22 839.661 1655.49 871.5 1626.49 871.5H1073.51C1044.51 871.5 1026.78 839.661 1042.05 815.012L1318.55 368.762Z" fill="#1F8793"/>
<path d="M1347.46 1046.99C1348.64 1048.85 1351.36 1048.85 1352.54 1046.99L1561 717.353C1562.26 715.356 1560.82 712.75 1558.46 712.75H1141.54C1139.18 712.75 1137.74 715.356 1139 717.353L1347.46 1046.99Z" fill="#1F8793"/>
<path d="M1656.5 860.482C1655.42 862.507 1653.74 864.145 1651.68 865.166L1499.11 941.063C1487.87 946.653 1477.54 932.085 1486.54 923.331L1719.12 696.975C1728.11 688.221 1742.4 698.94 1736.5 710.022L1656.5 860.482Z" fill="#006976"/>
<path d="M1044.84 860.482C1045.91 862.507 1047.6 864.145 1049.65 865.166L1202.22 941.063C1213.46 946.653 1223.79 932.085 1214.79 923.331L982.212 696.975C973.217 688.221 958.935 698.94 964.828 710.022L1044.84 860.482Z" fill="#006976"/>
<path d="M1339.61 530C1344.23 522 1355.77 522 1360.39 530L1491.16 756.5C1495.78 764.5 1490.01 774.5 1480.77 774.5H1219.23C1209.99 774.5 1204.22 764.5 1208.84 756.5L1339.61 530Z" fill="#0F5C65"/>
<path d="M1340.26 845.237C1344.94 852.896 1356.06 852.896 1360.74 845.237L1449.77 699.506C1454.65 691.509 1448.9 681.25 1439.53 681.25H1261.47C1252.1 681.25 1246.35 691.509 1251.23 699.506L1340.26 845.237Z" fill="#0F5C65"/>
</svg>
