<svg width="2701" height="1218" viewBox="0 0 2701 1218" fill="none" xmlns="http://www.w3.org/2000/svg">
<path d="M1308.28 273.719C1331.32 250.678 1368.68 250.678 1391.72 273.719L1758.28 640.281C1781.32 663.322 1781.32 700.678 1758.28 723.719L1391.72 1090.28C1368.68 1113.32 1331.32 1113.32 1308.28 1090.28L941.719 723.719C918.678 700.678 918.678 663.322 941.719 640.281L1308.28 273.719Z" fill="#A4A4A4"/>
<path d="M1400.74 428.524C1402.05 424.658 1404.68 421.422 1408.08 419.507L1546.19 341.66C1548.55 340.333 1550.56 338.358 1552 335.948L1607.11 244.077C1615.03 230.879 1633.56 235.957 1633.56 251.325L1633.56 301.718C1633.56 304.521 1632.85 307.308 1631.52 309.783L1573.95 416.532C1571.9 420.335 1568.51 423.124 1564.6 424.234L1465.75 452.283C1462.71 453.144 1459.97 455.024 1457.93 457.644L1391.36 543C1380.81 556.521 1361.4 545.108 1366.96 528.652L1400.74 428.524Z" fill="#939393"/>
<path d="M1299.26 428.524C1297.95 424.658 1295.32 421.422 1291.92 419.507L1153.81 341.66C1151.45 340.333 1149.44 338.358 1148 335.948L1092.89 244.077C1084.97 230.879 1066.44 235.957 1066.44 251.325L1066.44 301.718C1066.44 304.521 1067.15 307.308 1068.48 309.783L1126.05 416.532C1128.1 420.335 1131.49 423.124 1135.4 424.234L1234.25 452.283C1237.29 453.144 1240.03 455.024 1242.07 457.644L1308.64 543C1319.19 556.521 1338.6 545.108 1333.04 528.652L1299.26 428.524Z" fill="#939393"/>
<path d="M1566.51 648.57C1568.09 645.164 1570.9 642.476 1574.37 641.037L2103.45 421.692C2105.83 420.703 2107.92 419.116 2109.51 417.084L2405.59 39.011C2414.74 27.3259 2433.49 34.6067 2432.35 49.4051L2410.71 332.008C2410.5 334.716 2409.56 337.316 2407.99 339.532L2164.31 683.568C2162.02 686.796 2158.55 688.99 2154.66 689.673L1771.43 756.868C1768.42 757.396 1765.65 758.832 1763.47 760.983L1361.16 1159.23C1349.27 1171 1329.96 1157.42 1337.01 1142.25L1566.51 648.57Z" fill="#939393"/>
<path d="M1134.42 648.57C1132.84 645.164 1130.03 642.476 1126.56 641.037L597.485 421.692C595.1 420.703 593.011 419.116 591.42 417.084L295.341 39.011C286.19 27.3259 267.442 34.6067 268.575 49.4051L290.224 332.008C290.432 334.716 291.37 337.316 292.94 339.532L536.624 683.568C538.91 686.796 542.378 688.99 546.274 689.673L929.495 756.868C932.506 757.396 935.284 758.832 937.457 760.983L1339.77 1159.23C1351.66 1171 1370.97 1157.42 1363.92 1142.25L1134.42 648.57Z" fill="#939393"/>
<path d="M1363.67 1116.04C1356.49 1124.43 1343.51 1124.43 1336.33 1116.04L1258.53 1025.21C1248.53 1013.53 1256.83 995.5 1272.2 995.5H1427.8C1443.17 995.5 1451.47 1013.53 1441.47 1025.21L1363.67 1116.04Z" fill="#939393"/>
<path d="M1362.57 1043.73C1355.58 1050.56 1344.42 1050.56 1337.43 1043.73L1005.79 720.133C994.241 708.859 1002.22 689.25 1018.37 689.25L1681.63 689.25C1697.78 689.25 1705.76 708.859 1694.21 720.133L1362.57 1043.73Z" fill="#7E7E7E"/>
<path d="M1323.84 431.163C1338.29 416.714 1361.71 416.713 1376.16 431.163L1623.84 678.837C1638.29 693.286 1638.29 716.714 1623.84 731.163L1376.16 978.837C1361.71 993.286 1338.29 993.286 1323.84 978.837L1076.16 731.163C1061.71 716.714 1061.71 693.286 1076.16 678.837L1323.84 431.163Z" fill="#8C8C8C"/>
</svg>
